<svg id="Layer_1" data-name="Layer 1" xmlns="http://www.w3.org/2000/svg" xmlns:xlink="http://www.w3.org/1999/xlink" viewBox="0 0 26.87 26.87"><defs><style>.cls-1{fill:none;}.cls-2{clip-path:url(#clip-path);}.cls-3{fill:#0d0d0d;}.cls-4{clip-path:url(#clip-path-2);}.cls-5{clip-path:url(#clip-path-3);}</style><clipPath id="clip-path"><path class="cls-1" d="M10,20.3A4.89,4.89,0,0,1,8.46,20a2.71,2.71,0,0,1-1-.63,2.58,2.58,0,0,1-.63-1,4.68,4.68,0,0,1-.29-1.57c0-.89-.05-1.15-.05-3.41s0-2.51.05-3.4a4.62,4.62,0,0,1,.29-1.57,2.78,2.78,0,0,1,1.6-1.6A4.62,4.62,0,0,1,10,6.57c.88,0,1.15-.05,3.4-.05s2.52,0,3.41.05a4.68,4.68,0,0,1,1.57.29,2.58,2.58,0,0,1,1,.63,2.71,2.71,0,0,1,.63,1A4.89,4.89,0,0,1,20.3,10c0,.89.05,1.15.05,3.4s0,2.52-.05,3.41A5,5,0,0,1,20,18.41a2.78,2.78,0,0,1-1.6,1.6,5,5,0,0,1-1.57.29c-.89,0-1.15.05-3.41.05s-2.52,0-3.4-.05M10,5.05a6.42,6.42,0,0,0-2.05.39,4.07,4.07,0,0,0-1.49,1,4.07,4.07,0,0,0-1,1.49A6.16,6.16,0,0,0,5.05,10c0,.89,0,1.18,0,3.42v.11c0,2.24,0,2.53,0,3.42A6.16,6.16,0,0,0,5.44,19a4.24,4.24,0,0,0,1,1.49,3.92,3.92,0,0,0,1.49,1,6.13,6.13,0,0,0,2.05.4c.65,0,1,0,2,.05h3c1,0,1.34,0,2-.05a6.13,6.13,0,0,0,2.05-.4A4.3,4.3,0,0,0,21.42,19a6.13,6.13,0,0,0,.4-2.05c0-.9.05-1.19.05-3.48s0-2.58-.05-3.47a6.13,6.13,0,0,0-.4-2.05,3.92,3.92,0,0,0-1-1.49,4.24,4.24,0,0,0-1.49-1,6.42,6.42,0,0,0-2.05-.39c-.9,0-1.19,0-3.48,0s-2.57,0-3.47,0"/></clipPath><clipPath id="clip-path-2"><path class="cls-1" d="M10.6,13.54a2.81,2.81,0,1,1,2.81,2.81,2.81,2.81,0,0,1-2.81-2.81m-1.52,0a4.33,4.33,0,1,0,4.33-4.33,4.33,4.33,0,0,0-4.33,4.33"/></clipPath><clipPath id="clip-path-3"><path class="cls-1" d="M16.83,9a1,1,0,1,0,1-1,1,1,0,0,0-1,1"/></clipPath></defs><title>Artboard 1</title><g class="cls-2"><rect class="cls-3" width="26.87" height="26.87"/></g><g class="cls-4"><rect class="cls-3" x="4.08" y="4.21" width="18.66" height="18.66"/></g><g class="cls-5"><rect class="cls-3" x="11.83" y="2.99" width="12.02" height="12.02"/></g></svg>